#!OML:ASF X:\für Bonn\!DataBase\2005_08_10_Bjorn_Final\c3d\bjorn.ASF
:FULLY-SPECIFIED
:DEGREES
91
root 0.415807 19.3573 2.20047 -172.578 -3.0369 177.234
lowerback -19.4067 -0.820029 -5.88177
upperback 3.77965 0.398317 -0.243598
thorax 15.311 -0.349515 3.20063
lowerneck 29.4473 -2.78001 0.643891
upperneck 15.8652 -8.83628 2.63622
head 0.73919 -6.30136 1.43708
rclavicle 3.62161e-015 1.93815e-014
rhumerus -1134.47 -30.0402 1110.18
rradius 27.8173
rwrist -26.9315
rhand -30.9331 -10.8967
rfingers 7.12502
rthumb -4.21853 -40.8347
lclavicle 3.62161e-015 1.93815e-014
lhumerus -37.4883 38.3046 -28.6843
lradius 23.096
lwrist 4.73244
lhand -26.5928 18.6831
lfingers 7.12502
lthumb -0.026847 48.6629
rfemur -14.631 -15.6497 11.757
rtibia 31.2925
rfoot -16.2955 13.6509
rtoes -26.2012
lfemur -13.5187 5.5712 -17.7342
ltibia 28.0584
lfoot -8.7064 -15.1936
ltoes 2.96459
92
root 0.409606 19.3415 2.23259 -172.792 -2.87399 177.274
lowerback -19.2714 -0.714775 -5.74883
upperback 4.10389 0.501858 -0.177557
thorax 15.6095 -0.309751 3.23332
lowerneck 29.618 -2.8295 0.63457
upperneck 15.3865 -8.72686 2.47538
head 0.53139 -6.2023 1.40378
rclavicle -4.68542e-015 9.81499e-015
rhumerus -1136.46 -28.8567 1106.46
rradius 27.8399
rwrist -29.3283
rhand -30.9229 -11.9256
rfingers 7.12502
rthumb -4.20866 -41.8638
lclavicle -4.68542e-015 9.81499e-015
lhumerus -40.1199 38.1278 -26.5542
lradius 23.0932
lwrist 5.84263
lhand -26.3138 17.9001
lfingers 7.12502
lthumb 0.242711 47.8797
rfemur -14.5484 -15.8489 11.7034
rtibia 31.3296
rfoot -16.4663 14.0417
rtoes -26.425
lfemur -13.3565 5.62798 -17.7285
ltibia 28.0621
lfoot -9.01818 -15.0856
ltoes 2.80025
93
root 0.402296 19.3217 2.27195 -173.014 -2.70783 177.321
lowerback -19.0782 -0.582735 -5.55763
upperback 4.43246 0.62413 -0.144147
thorax 15.8773 -0.25405 3.20061
lowerneck 29.6448 -2.89582 0.681065
upperneck 14.9699 -8.63011 2.34683
head 0.366224 -6.10412 1.36365
rclavicle -1.98202e-015 -1.58407e-015
rhumerus -1138.34 -28.0457 1102.66
rradius 27.7706
rwrist -31.4632
rhand -30.4993 -12.0091
rfingers 7.12502
rthumb -3.79965 -41.955
lclavicle -1.98202e-015 -1.58407e-015
lhumerus -42.1465 37.4278 -23.5968
lradius 23.2507
lwrist 8.29794
lhand -26.136 17.9126
lfingers 7.12502
lthumb 0.414362 47.8919
rfemur -14.4887 -15.9761 11.6633
rtibia 31.368
rfoot -16.606 14.44
rtoes -26.3109
lfemur -13.2348 5.59817 -17.7232
ltibia 28.1079
lfoot -9.42304 -14.9174
ltoes 2.66695
94
root 0.395114 19.2989 2.31591 -173.231 -2.53652 177.364
lowerback -18.8478 -0.440297 -5.34947
upperback 4.74079 0.753308 -0.131877
thorax 16.0983 -0.190893 3.13526
lowerneck 29.5808 -2.99368 0.8268
upperneck 14.5942 -8.54404 2.14553
head 0.222811 -6.00281 1.27755
rclavicle 2.60905e-016 3.15571e-015
rhumerus -1140.13 -27.6653 1098.91
rradius 27.5926
rwrist -32.9455
rhand -29.6861 -10.9156
rfingers 7.12502
rthumb -3.01427 -40.874
lclavicle 2.60905e-016 3.15571e-015
lhumerus -43.7828 36.6096 -20.1681
lradius 23.4422
lwrist 10.7297
lhand -25.6692 18.4068
lfingers 7.12502
lthumb 0.865198 48.3847
rfemur -14.4511 -16.033 11.6337
rtibia 31.4101
rfoot -16.7933 14.7487
rtoes -26.191
lfemur -13.1595 5.59364 -17.7288
ltibia 28.2005
lfoot -9.95494 -14.7619
ltoes 2.25924
